<svg xmlns="http://www.w3.org/2000/svg" xmlns:xlink="http://www.w3.org/1999/xlink" width="500" zoomAndPan="magnify" viewBox="0 0 375 374.999991" height="500" preserveAspectRatio="xMidYMid meet" version="1.0"><defs><clipPath id="fe31ec0c5f"><path d="M 72.148438 37.503906 L 225.898438 37.503906 L 225.898438 337.496094 L 72.148438 337.496094 Z M 72.148438 37.503906 " clip-rule="nonzero"/></clipPath><clipPath id="977a6ee46a"><path d="M 149.050781 37.503906 L 302.800781 37.503906 L 302.800781 337.496094 L 149.050781 337.496094 Z M 149.050781 37.503906 " clip-rule="nonzero"/></clipPath></defs><rect x="-37.5" width="450" fill="#ffffff" y="-37.499999" height="449.999989" fill-opacity="1"/><rect x="-37.5" width="450" fill="#ffffff" y="-37.499999" height="449.999989" fill-opacity="1"/><rect x="-37.5" width="450" fill="#ffffff" y="-37.499999" height="449.999989" fill-opacity="1"/><g clip-path="url(#fe31ec0c5f)"><path stroke-linecap="butt" transform="matrix(0.749771, 0, 0, 0.75, 72.148901, 37.504473)" fill="none" stroke-linejoin="miter" d="M -0.000617605 -0.000755103 L 205.061899 -0.000755103 L 205.061899 399.988854 L -0.000617605 399.988854 L -0.000617605 -0.000755103 " stroke="#000000" stroke-width="8" stroke-opacity="1" stroke-miterlimit="4"/></g><g clip-path="url(#977a6ee46a)"><path stroke-linecap="butt" transform="matrix(0.749771, 0, 0, 0.75, 149.049633, 37.504473)" fill="none" stroke-linejoin="miter" d="M 0.00153132 -0.000755103 L 205.064048 -0.000755103 L 205.064048 399.988854 L 0.00153132 399.988854 L 0.00153132 -0.000755103 " stroke="#000000" stroke-width="8" stroke-opacity="1" stroke-miterlimit="4"/></g><path stroke-linecap="butt" transform="matrix(0.000000000000004349, 0.745342, -0.75, 0.000000000000004376, 285.184908, 173.835517)" fill="none" stroke-linejoin="miter" d="M 0.000564728 4.501753 L 60.380809 4.501753 " stroke="#000000" stroke-width="9" stroke-opacity="1" stroke-miterlimit="4"/><path stroke-linecap="butt" transform="matrix(0.000000000000003025, 0.745342, -0.75, 0.000000000000003044, 97.023946, 173.835517)" fill="none" stroke-linejoin="miter" d="M 0.000564728 4.500678 L 60.380809 4.500678 " stroke="#000000" stroke-width="9" stroke-opacity="1" stroke-miterlimit="4"/></svg>